# Blender v2.83.0 OBJ File: 'tree.blend'
# www.blender.org
mtllib tree.mtl
o Cube
v -1.882583 -5.591017 2.373095
v -0.732082 -3.337858 0.803097
v -1.882583 -5.672785 -2.191223
v -0.732082 -3.257537 -0.753039
v 1.677150 -5.591017 2.373095
v 0.732865 -3.337858 0.803097
v 1.677150 -5.672785 -2.191223
v 0.735109 -3.821646 -0.826685
v -1.882583 -5.842163 0.429692
v -0.732082 -3.201313 -0.003083
v 1.677150 -5.842163 0.429692
v 0.732865 -3.201313 -0.003083
v -0.902737 -2.415407 0.000000
v -0.902737 -2.128845 -0.902737
v 0.902737 -2.015088 -0.902737
v 0.902737 -2.415407 0.000000
v 0.902737 -2.128105 0.902737
v -0.902737 -1.994377 0.902737
v 0.000000 -2.732543 0.000000
v 1.255180 3.839662 -1.727606
v 2.030923 2.023149 -2.795326
v 2.030923 -0.222184 -2.795326
v 1.255179 -2.038697 -1.727606
v 2.030923 3.839662 -0.659887
v 3.286103 2.023149 -1.067719
v 3.286103 -0.222184 -1.067719
v 2.030923 -2.038697 -0.659887
v 2.030923 3.839662 0.659887
v 3.286103 2.023149 1.067720
v 3.286103 -0.222184 1.067720
v 2.030923 -2.038697 0.659887
v 1.255180 3.839662 1.727607
v 2.030923 2.023149 2.795326
v 2.030923 -0.222184 2.795326
v 1.255180 -2.038697 1.727607
v 0.000000 3.839662 2.135439
v 0.000000 2.023149 3.455213
v 0.000000 -0.222184 3.455213
v 0.000000 -2.038697 2.135439
v -0.000000 4.533509 0.000001
v -1.255180 3.839662 1.727607
v -2.030923 2.023149 2.795326
v -2.030923 -0.222184 2.795326
v -1.255179 -2.038697 1.727607
v -2.030923 3.839662 0.659887
v -3.286103 2.023149 1.067720
v -3.286103 -0.222184 1.067720
v -2.030923 -2.038697 0.659887
v -2.030923 3.839662 -0.659887
v -3.286103 2.023149 -1.067719
v -3.286103 -0.222184 -1.067719
v -2.030923 -2.038697 -0.659886
v -1.255180 3.839662 -1.727606
v -2.030923 2.023149 -2.795326
v -2.030923 -0.222184 -2.795326
v -1.255180 -2.038697 -1.727606
v -0.000000 3.839662 -2.135439
v -0.000000 2.023149 -3.455212
v -0.000000 -0.222184 -3.455212
v -0.000000 -2.038697 -2.135439
v -2.068720 -5.665780 2.580740
v -0.930669 -3.241525 0.989208
v -2.068041 -5.758818 -2.395079
v -0.932176 -3.183083 -0.947388
v 1.859480 -5.669860 2.582600
v 0.937435 -3.251720 0.987719
v 1.859480 -5.763532 -2.395854
v 0.926876 -3.707224 -1.009676
v -2.118794 -6.007973 0.437648
v -1.019134 -3.170421 -0.002801
v 1.909616 -6.013374 0.430265
v 1.021194 -3.186466 -0.003603
v -1.150394 -2.267008 -0.000520
v -1.084222 -1.953969 -1.043576
v 1.067261 -1.821285 -1.039576
v 1.148271 -2.263554 0.003066
v 1.085024 -1.953608 1.043021
v -1.068820 -1.802803 1.040827
v 0.000000 -3.021260 0.000000
v 1.361276 4.064983 -1.873644
v 2.193199 2.107587 -3.018682
v 2.193199 -0.306622 -3.018681
v 1.361275 -2.264017 -1.873643
v 2.202601 4.064983 -0.715662
v 3.548677 2.107587 -1.153030
v 3.548677 -0.306622 -1.153029
v 2.202601 -2.264017 -0.715662
v 2.202601 4.064983 0.715662
v 3.548677 2.107587 1.153030
v 3.548677 -0.306622 1.153030
v 2.202601 -2.264017 0.715662
v 1.361276 4.064983 1.873644
v 2.193200 2.107587 3.018682
v 2.193199 -0.306622 3.018682
v 1.361276 -2.264017 1.873644
v 0.000000 4.064983 2.315946
v 0.000000 2.107587 3.731304
v 0.000000 -0.306622 3.731304
v 0.000000 -2.264017 2.315946
v -0.000000 4.822226 0.000001
v -1.361276 4.064983 1.873644
v -2.193199 2.107587 3.018682
v -2.193199 -0.306622 3.018682
v -1.361275 -2.264017 1.873644
v -2.202601 4.064983 0.715662
v -3.548677 2.107587 1.153030
v -3.548677 -0.306622 1.153030
v -2.202601 -2.264017 0.715662
v -2.202601 4.064983 -0.715662
v -3.548677 2.107587 -1.153029
v -3.548677 -0.306622 -1.153029
v -2.202601 -2.264017 -0.715661
v -1.361276 4.064983 -1.873644
v -2.193199 2.107587 -3.018681
v -2.193199 -0.306622 -3.018681
v -1.361276 -2.264017 -1.873643
v -0.000000 4.064983 -2.315945
v -0.000000 2.107587 -3.731303
v -0.000000 -0.306622 -3.731303
v -0.000000 -2.264017 -2.315945
vt 0.463252 0.159821
vt 0.463252 0.159821
vt 0.463252 0.159821
vt 0.463252 0.159821
vt 0.463252 0.159821
vt 0.463252 0.159821
vt 0.463252 0.159821
vt 0.463252 0.159821
vt 0.463252 0.159821
vt 0.463252 0.159821
vt 0.463252 0.159821
vt 0.463252 0.159821
vt 0.514699 0.229117
vt 0.514699 0.229117
vt 0.514699 0.229117
vt 0.514699 0.229117
vt 0.514699 0.229117
vt 0.514699 0.229117
vt 0.511549 0.876401
vt 0.511549 0.876401
vt 0.511549 0.876401
vt 0.511549 0.876401
vt 0.511549 0.876401
vt 0.511549 0.876401
vt 0.486351 0.183445
vt 0.486351 0.183445
vt 0.486351 0.183445
vt 0.486351 0.183445
vt 0.463252 0.159821
vt 0.463252 0.159821
vt 0.463252 0.159821
vt 0.463252 0.159821
vt 0.511549 0.876401
vt 0.511549 0.876401
vt 0.511549 0.876401
vt 0.511549 0.876401
vt 0.511549 0.876401
vt 0.511549 0.876401
vt 0.511549 0.876401
vt 0.511549 0.876401
vt 0.511549 0.876401
vt 0.511549 0.876401
vt 0.511549 0.876401
vt 0.511549 0.876401
vt 0.511549 0.876401
vt 0.511549 0.876401
vt 0.511549 0.876401
vt 0.511549 0.876401
vt 0.511549 0.876401
vt 0.511549 0.876401
vt 0.511549 0.876401
vt 0.511549 0.876401
vt 0.511549 0.876401
vt 0.511549 0.876401
vt 0.511549 0.876401
vt 0.511549 0.876401
vt 0.511549 0.876401
vt 0.511549 0.876401
vt 0.511549 0.876401
vt 0.511549 0.876401
vt 0.511549 0.876401
vt 0.511549 0.876401
vt 0.511549 0.876401
vt 0.511549 0.876401
vt 0.511549 0.876401
vt 0.511549 0.876401
vt 0.511549 0.876401
vt 0.511549 0.876401
vt 0.511549 0.876401
vt 0.511549 0.876401
vt 0.511549 0.876401
vt 0.511549 0.876401
vt 0.511549 0.876401
vt 0.511549 0.876401
vt 0.463252 0.159821
vt 0.463252 0.159821
vt 0.463252 0.159821
vt 0.463252 0.159821
vt 0.463252 0.159821
vt 0.463252 0.159821
vt 0.463252 0.159821
vt 0.463252 0.159821
vt 0.463252 0.159821
vt 0.463252 0.159821
vt 0.463252 0.159821
vt 0.463252 0.159821
vt 0.514699 0.229117
vt 0.514699 0.229117
vt 0.514699 0.229117
vt 0.514699 0.229117
vt 0.514699 0.229117
vt 0.514699 0.229117
vt 0.511549 0.876401
vt 0.511549 0.876401
vt 0.511549 0.876401
vt 0.511549 0.876401
vt 0.511549 0.876401
vt 0.511549 0.876401
vt 0.486351 0.183445
vt 0.486351 0.183445
vt 0.486351 0.183445
vt 0.486351 0.183445
vt 0.463252 0.159821
vt 0.463252 0.159821
vt 0.463252 0.159821
vt 0.463252 0.159821
vt 0.511549 0.876401
vt 0.511549 0.876401
vt 0.511549 0.876401
vt 0.511549 0.876401
vt 0.511549 0.876401
vt 0.511549 0.876401
vt 0.511549 0.876401
vt 0.511549 0.876401
vt 0.511549 0.876401
vt 0.511549 0.876401
vt 0.511549 0.876401
vt 0.511549 0.876401
vt 0.511549 0.876401
vt 0.511549 0.876401
vt 0.511549 0.876401
vt 0.511549 0.876401
vt 0.511549 0.876401
vt 0.511549 0.876401
vt 0.511549 0.876401
vt 0.511549 0.876401
vt 0.511549 0.876401
vt 0.511549 0.876401
vt 0.511549 0.876401
vt 0.511549 0.876401
vt 0.511549 0.876401
vt 0.511549 0.876401
vt 0.511549 0.876401
vt 0.511549 0.876401
vt 0.511549 0.876401
vt 0.511549 0.876401
vt 0.511549 0.876401
vt 0.511549 0.876401
vt 0.511549 0.876401
vt 0.511549 0.876401
vt 0.511549 0.876401
vt 0.511549 0.876401
vt 0.511549 0.876401
vt 0.511549 0.876401
vt 0.511549 0.876401
vt 0.511549 0.876401
vt 0.511549 0.876401
vt 0.511549 0.876401
vn -0.9111 0.4119 0.0138
vn 0.0491 0.5467 -0.8359
vn 0.9349 0.3547 -0.0148
vn 0.0000 0.5717 0.8205
vn 0.0000 -0.9918 0.1282
vn -0.9839 -0.1773 -0.0247
vn -0.9868 -0.1595 0.0265
vn 0.0000 -0.9979 -0.0645
vn 0.9170 0.3957 -0.0512
vn -0.9076 0.4196 -0.0175
vn 0.0345 0.9304 -0.3650
vn -0.0294 0.9342 0.3554
vn -0.0032 -0.0778 0.9970
vn -0.0330 -0.0767 -0.9965
vn 0.9856 -0.1686 0.0149
vn 0.9915 -0.1286 0.0177
vn 0.2542 -0.5685 -0.7824
vn 0.2542 0.5685 -0.7824
vn 0.0999 -0.9463 -0.3075
vn 0.3090 -0.0000 -0.9511
vn 0.0999 0.9463 -0.3075
vn 0.6656 -0.5685 -0.4836
vn 0.6656 0.5685 -0.4836
vn 0.2616 -0.9463 -0.1900
vn 0.8090 -0.0000 -0.5878
vn 0.2616 0.9463 -0.1900
vn 0.8227 -0.5685 0.0000
vn 0.8227 0.5685 0.0000
vn 0.3233 -0.9463 0.0000
vn 1.0000 -0.0000 0.0000
vn 0.3233 0.9463 0.0000
vn 0.6656 -0.5685 0.4836
vn 0.6656 0.5685 0.4836
vn 0.2616 -0.9463 0.1900
vn 0.8090 -0.0000 0.5878
vn 0.2616 0.9463 0.1900
vn 0.2542 -0.5685 0.7824
vn 0.2542 0.5685 0.7824
vn 0.0999 -0.9463 0.3075
vn 0.3090 -0.0000 0.9511
vn 0.0999 0.9463 0.3075
vn -0.2542 -0.5685 0.7824
vn -0.2542 0.5685 0.7824
vn -0.0999 -0.9463 0.3075
vn -0.3090 -0.0000 0.9511
vn -0.0999 0.9463 0.3075
vn -0.6656 -0.5685 0.4836
vn -0.6656 0.5685 0.4836
vn -0.2616 -0.9463 0.1900
vn -0.8090 -0.0000 0.5878
vn -0.2616 0.9463 0.1900
vn -0.8227 -0.5685 -0.0000
vn -0.8227 0.5685 0.0000
vn -0.3233 -0.9463 0.0000
vn -1.0000 0.0000 -0.0000
vn -0.3233 0.9463 0.0000
vn -0.6656 -0.5685 -0.4836
vn -0.6656 0.5685 -0.4836
vn -0.2616 -0.9463 -0.1900
vn -0.8090 0.0000 -0.5878
vn -0.2616 0.9463 -0.1900
vn -0.2542 -0.5685 -0.7824
vn -0.2542 0.5685 -0.7824
vn -0.0999 -0.9463 -0.3075
vn -0.3090 0.0000 -0.9511
vn -0.0999 0.9463 -0.3075
vn 0.9236 -0.3832 0.0097
vn -0.0383 -0.5203 0.8531
vn -0.9439 -0.3301 -0.0110
vn -0.0013 -0.5497 -0.8354
vn 0.0011 0.9875 -0.1576
vn 0.9861 0.1353 0.0964
vn 0.9877 0.1160 -0.1050
vn 0.0014 0.9961 0.0878
vn -0.9313 -0.3591 0.0605
vn 0.9193 -0.3935 -0.0066
vn -0.0315 -0.9367 0.3487
vn 0.0293 -0.9398 -0.3405
vn 0.0017 0.0390 -0.9992
vn 0.0185 0.0405 0.9990
vn -0.9884 0.1246 -0.0865
vn -0.9921 0.0951 0.0813
vn -0.2546 0.5666 0.7836
vn -0.2546 -0.5666 0.7836
vn -0.1005 0.9457 0.3092
vn -0.1005 -0.9457 0.3092
vn -0.6666 0.5666 0.4843
vn -0.6666 -0.5666 0.4843
vn -0.2630 0.9457 0.1911
vn -0.2630 -0.9457 0.1911
vn -0.8240 0.5666 0.0000
vn -0.8240 -0.5666 0.0000
vn -0.3251 0.9457 0.0000
vn -0.3251 -0.9457 0.0000
vn -0.6666 0.5666 -0.4843
vn -0.6666 -0.5666 -0.4843
vn -0.2630 0.9457 -0.1911
vn -0.2630 -0.9457 -0.1911
vn -0.2546 0.5666 -0.7836
vn -0.2546 -0.5666 -0.7836
vn -0.1005 0.9457 -0.3092
vn -0.1005 -0.9457 -0.3092
vn 0.2546 0.5666 -0.7836
vn 0.2546 -0.5666 -0.7836
vn 0.1005 0.9457 -0.3092
vn 0.1005 -0.9457 -0.3092
vn 0.6666 0.5666 -0.4843
vn 0.6666 -0.5666 -0.4843
vn 0.2630 0.9457 -0.1911
vn 0.2630 -0.9457 -0.1911
vn 0.8240 0.5666 0.0000
vn 0.8240 -0.5666 -0.0000
vn 0.3251 0.9457 -0.0000
vn 0.3251 -0.9457 0.0000
vn 0.6666 0.5666 0.4843
vn 0.6666 -0.5666 0.4843
vn 0.2630 0.9457 0.1911
vn 0.2630 -0.9457 0.1911
vn 0.2546 0.5666 0.7836
vn 0.2546 -0.5666 0.7836
vn 0.1005 0.9457 0.3092
vn 0.1005 -0.9457 0.3092
usemtl Material
s off
f 9/1/1 10/2/1 4/3/1 3/4/1
f 3/4/2 4/3/2 8/5/2 7/6/2
f 11/7/3 12/8/3 6/9/3 5/10/3
f 5/10/4 6/9/4 2/11/4 1/12/4
f 9/1/5 11/7/5 5/10/5 1/12/5
f 4/13/6 10/14/6 13/15/6 14/16/6
f 10/14/7 2/17/7 18/18/7 13/15/7
f 3/4/8 7/6/8 11/7/8 9/1/8
f 7/6/9 8/5/9 12/8/9 11/7/9
f 1/12/10 2/11/10 10/2/10 9/1/10
f 16/19/11 13/20/11 18/21/11 17/22/11
f 15/23/12 14/24/12 13/20/12 16/19/12
f 2/25/13 6/26/13 17/27/13 18/28/13
f 8/5/14 4/3/14 14/29/14 15/30/14
f 6/9/15 12/8/15 16/31/15 17/32/15
f 12/8/16 8/5/16 15/30/16 16/31/16
f 60/33/17 59/34/17 22/35/17 23/36/17
f 58/37/18 57/38/18 20/39/18 21/40/18
f 19/41/19 60/33/19 23/36/19
f 59/34/20 58/37/20 21/40/20 22/35/20
f 57/38/21 40/42/21 20/39/21
f 23/36/22 22/35/22 26/43/22 27/44/22
f 21/40/23 20/39/23 24/45/23 25/46/23
f 19/41/24 23/36/24 27/44/24
f 22/35/25 21/40/25 25/46/25 26/43/25
f 20/39/26 40/42/26 24/45/26
f 27/44/27 26/43/27 30/47/27 31/48/27
f 25/46/28 24/45/28 28/49/28 29/50/28
f 19/41/29 27/44/29 31/48/29
f 26/43/30 25/46/30 29/50/30 30/47/30
f 24/45/31 40/42/31 28/49/31
f 31/48/32 30/47/32 34/51/32 35/52/32
f 29/50/33 28/49/33 32/53/33 33/54/33
f 19/41/34 31/48/34 35/52/34
f 30/47/35 29/50/35 33/54/35 34/51/35
f 28/49/36 40/42/36 32/53/36
f 35/52/37 34/51/37 38/55/37 39/56/37
f 33/54/38 32/53/38 36/57/38 37/58/38
f 19/41/39 35/52/39 39/56/39
f 34/51/40 33/54/40 37/58/40 38/55/40
f 32/53/41 40/42/41 36/57/41
f 39/56/42 38/55/42 43/59/42 44/60/42
f 37/58/43 36/57/43 41/61/43 42/62/43
f 19/41/44 39/56/44 44/60/44
f 38/55/45 37/58/45 42/62/45 43/59/45
f 36/57/46 40/42/46 41/61/46
f 44/60/47 43/59/47 47/63/47 48/64/47
f 42/62/48 41/61/48 45/65/48 46/66/48
f 19/41/49 44/60/49 48/64/49
f 43/59/50 42/62/50 46/66/50 47/63/50
f 41/61/51 40/42/51 45/65/51
f 48/64/52 47/63/52 51/67/52 52/68/52
f 46/66/53 45/65/53 49/69/53 50/70/53
f 19/41/54 48/64/54 52/68/54
f 47/63/55 46/66/55 50/70/55 51/67/55
f 45/65/56 40/42/56 49/69/56
f 52/68/57 51/67/57 55/71/57 56/72/57
f 50/70/58 49/69/58 53/73/58 54/74/58
f 19/41/59 52/68/59 56/72/59
f 51/67/60 50/70/60 54/74/60 55/71/60
f 49/69/61 40/42/61 53/73/61
f 56/72/62 55/71/62 59/34/62 60/33/62
f 54/74/63 53/73/63 57/38/63 58/37/63
f 19/41/64 56/72/64 60/33/64
f 55/71/65 54/74/65 58/37/65 59/34/65
f 53/73/66 40/42/66 57/38/66
usemtl Material.001
f 69/75/67 63/76/67 64/77/67 70/78/67
f 63/76/68 67/79/68 68/80/68 64/77/68
f 71/81/69 65/82/69 66/83/69 72/84/69
f 65/82/70 61/85/70 62/86/70 66/83/70
f 69/75/71 61/85/71 65/82/71 71/81/71
f 64/87/72 74/88/72 73/89/72 70/90/72
f 70/90/73 73/89/73 78/91/73 62/92/73
f 63/76/74 69/75/74 71/81/74 67/79/74
f 67/79/75 71/81/75 72/84/75 68/80/75
f 61/85/76 69/75/76 70/78/76 62/86/76
f 76/93/77 77/94/77 78/95/77 73/96/77
f 75/97/78 76/93/78 73/96/78 74/98/78
f 62/99/79 78/100/79 77/101/79 66/102/79
f 68/80/80 75/103/80 74/104/80 64/77/80
f 66/83/81 77/105/81 76/106/81 72/84/81
f 72/84/82 76/106/82 75/103/82 68/80/82
f 120/107/83 83/108/83 82/109/83 119/110/83
f 118/111/84 81/112/84 80/113/84 117/114/84
f 79/115/85 83/108/85 120/107/85
f 119/110/45 82/109/45 81/112/45 118/111/45
f 117/114/86 80/113/86 100/116/86
f 83/108/87 87/117/87 86/118/87 82/109/87
f 81/112/88 85/119/88 84/120/88 80/113/88
f 79/115/89 87/117/89 83/108/89
f 82/109/50 86/118/50 85/119/50 81/112/50
f 80/113/90 84/120/90 100/116/90
f 87/117/91 91/121/91 90/122/91 86/118/91
f 85/119/92 89/123/92 88/124/92 84/120/92
f 79/115/93 91/121/93 87/117/93
f 86/118/55 90/122/55 89/123/55 85/119/55
f 84/120/94 88/124/94 100/116/94
f 91/121/95 95/125/95 94/126/95 90/122/95
f 89/123/96 93/127/96 92/128/96 88/124/96
f 79/115/97 95/125/97 91/121/97
f 90/122/60 94/126/60 93/127/60 89/123/60
f 88/124/98 92/128/98 100/116/98
f 95/125/99 99/129/99 98/130/99 94/126/99
f 93/127/100 97/131/100 96/132/100 92/128/100
f 79/115/101 99/129/101 95/125/101
f 94/126/65 98/130/65 97/131/65 93/127/65
f 92/128/102 96/132/102 100/116/102
f 99/129/103 104/133/103 103/134/103 98/130/103
f 97/131/104 102/135/104 101/136/104 96/132/104
f 79/115/105 104/133/105 99/129/105
f 98/130/20 103/134/20 102/135/20 97/131/20
f 96/132/106 101/136/106 100/116/106
f 104/133/107 108/137/107 107/138/107 103/134/107
f 102/135/108 106/139/108 105/140/108 101/136/108
f 79/115/109 108/137/109 104/133/109
f 103/134/25 107/138/25 106/139/25 102/135/25
f 101/136/110 105/140/110 100/116/110
f 108/137/111 112/141/111 111/142/111 107/138/111
f 106/139/112 110/143/112 109/144/112 105/140/112
f 79/115/113 112/141/113 108/137/113
f 107/138/30 111/142/30 110/143/30 106/139/30
f 105/140/114 109/144/114 100/116/114
f 112/141/115 116/145/115 115/146/115 111/142/115
f 110/143/116 114/147/116 113/148/116 109/144/116
f 79/115/117 116/145/117 112/141/117
f 111/142/35 115/146/35 114/147/35 110/143/35
f 109/144/118 113/148/118 100/116/118
f 116/145/119 120/107/119 119/110/119 115/146/119
f 114/147/120 118/111/120 117/114/120 113/148/120
f 79/115/121 120/107/121 116/145/121
f 115/146/40 119/110/40 118/111/40 114/147/40
f 113/148/122 117/114/122 100/116/122
