# Blender v2.83.0 OBJ File: 'tree.blend'
# www.blender.org
mtllib tree.mtl
o Cube_Cube.002
v -5.548154 -1.000000 5.548154
v -1.000000 1.000000 1.000000
v -5.548154 -1.000000 -5.548154
v -1.000000 1.000000 -1.000000
v 5.548154 -1.000000 5.548154
v 1.000000 1.000000 1.000000
v 5.548154 -1.000000 -5.548154
v 1.000000 1.000000 -1.000000
v -4.634490 1.000000 4.634490
v -4.634490 1.000000 -4.634490
v 4.634490 1.000000 -4.634490
v 4.634490 1.000000 4.634490
v -1.231512 3.848503 1.231512
v -1.231512 3.848503 -1.231512
v 1.231512 3.848503 -1.231512
v 1.231512 3.848503 1.231512
v -4.055618 3.848503 4.055618
v -4.055618 3.848503 -4.055618
v 4.055618 3.848503 -4.055618
v 4.055618 3.848503 4.055618
v -1.000099 6.921810 1.000099
v -1.000099 6.921810 -1.000099
v 1.000099 6.921810 -1.000099
v 1.000099 6.921810 1.000099
v -2.990074 6.921810 2.990074
v -2.990074 6.921810 -2.990074
v 2.990074 6.921810 -2.990074
v 2.990074 6.921810 2.990074
v -1.138806 9.164494 1.138806
v -1.138806 9.164494 -1.138806
v 1.138806 9.164494 -1.138806
v 1.138806 9.164494 1.138806
v -1.767382 9.164494 1.767382
v -1.767382 9.164494 -1.767382
v 1.767382 9.164494 -1.767382
v 1.767382 9.164494 1.767382
v -0.106616 10.714991 0.106616
v -0.106616 10.714991 -0.106616
v 0.106616 10.714991 -0.106616
v 0.106616 10.714991 0.106616
v 0.000000 0.000000 0.000000
v 0.000000 0.000000 0.000000
v 0.000000 0.000000 0.000000
v 0.000000 0.000000 0.000000
v 0.000000 0.000000 0.000000
v 0.000000 0.000000 0.000000
v 0.000000 0.000000 0.000000
v 0.000000 0.000000 0.000000
v 0.000000 0.000000 0.000000
v 0.000000 0.000000 0.000000
v 0.000000 0.000000 0.000000
v 0.000000 0.000000 0.000000
v 0.000000 0.000000 0.000000
v 0.000000 0.000000 0.000000
v 0.000000 0.000000 0.000000
v 0.000000 0.000000 0.000000
v 0.000000 0.000000 0.000000
v 0.000000 0.000000 0.000000
v 0.000000 0.000000 0.000000
v 0.000000 0.000000 0.000000
v 0.000000 0.000000 0.000000
v 0.000000 0.000000 0.000000
v 0.000000 0.000000 0.000000
v 0.000000 0.000000 0.000000
v 0.000000 0.000000 0.000000
v 0.000000 0.000000 0.000000
v 0.000000 0.000000 0.000000
v 0.000000 0.000000 0.000000
v 0.000000 0.000000 0.000000
v 0.000000 0.000000 0.000000
v 0.000000 0.000000 0.000000
v 0.000000 0.000000 0.000000
v 0.000000 0.000000 0.000000
v 0.000000 0.000000 0.000000
v 0.000000 0.000000 0.000000
v 0.000000 0.000000 0.000000
v 0.000000 0.000000 0.000000
v 0.000000 0.000000 0.000000
v 0.000000 0.000000 0.000000
v 0.000000 0.000000 0.000000
v 0.000000 0.000000 0.000000
v 0.000000 0.000000 0.000000
v 0.000000 0.000000 0.000000
v 0.000000 0.000000 0.000000
v 0.000000 0.000000 0.000000
v 0.000000 0.000000 0.000000
v 0.000000 0.000000 0.000000
v 0.000000 0.000000 0.000000
v 0.000000 0.000000 0.000000
v 0.000000 0.000000 0.000000
v 0.000000 0.000000 0.000000
v 0.000000 0.000000 0.000000
v 0.000000 0.000000 0.000000
v 0.000000 0.000000 0.000000
v 0.000000 0.000000 0.000000
v 0.000000 0.000000 0.000000
v 0.000000 0.000000 0.000000
v 0.000000 0.000000 0.000000
v 0.000000 0.000000 0.000000
v 0.000000 0.000000 0.000000
v 0.000000 0.000000 0.000000
v 0.000000 0.000000 0.000000
v 0.000000 0.000000 0.000000
v 0.000000 0.000000 0.000000
vt 0.375000 0.000000
vt 0.625000 0.000000
vt 0.625000 0.250000
vt 0.375000 0.250000
vt 0.625000 0.500000
vt 0.375000 0.500000
vt 0.625000 0.750000
vt 0.375000 0.750000
vt 0.625000 1.000000
vt 0.375000 1.000000
vt 0.125000 0.500000
vt 0.125000 0.750000
vt 0.625000 0.250000
vt 0.625000 0.500000
vt 0.625000 0.750000
vt 0.625000 0.500000
vt 0.625000 0.750000
vt 0.625000 0.000000
vt 0.625000 1.000000
vt 0.625000 0.250000
vt 0.625000 0.000000
vt 0.625000 0.000000
vt 0.625000 0.250000
vt 0.625000 1.000000
vt 0.625000 1.000000
vt 0.625000 0.750000
vt 0.625000 0.750000
vt 0.625000 1.000000
vt 0.625000 0.500000
vt 0.625000 0.500000
vt 0.625000 0.500000
vt 0.625000 0.750000
vt 0.625000 0.250000
vt 0.625000 0.000000
vt 0.625000 1.000000
vt 0.625000 0.750000
vt 0.625000 1.000000
vt 0.625000 0.000000
vt 0.625000 0.250000
vt 0.625000 0.500000
vt 0.625000 0.250000
vt 0.625000 0.250000
vt 0.625000 0.500000
vt 0.625000 0.000000
vt 0.625000 0.750000
vt 0.625000 0.500000
vt 0.625000 0.750000
vt 0.625000 0.000000
vt 0.625000 1.000000
vt 0.875000 0.500000
vt 0.875000 0.750000
vt 0.625000 0.000000
vt 0.625000 0.250000
vt 0.625000 1.000000
vt 0.296822 0.485388
vt 0.250000 0.490000
vt 0.203179 0.485389
vt 0.158156 0.471731
vt 0.116663 0.449553
vt 0.080295 0.419706
vt 0.050447 0.383337
vt 0.028269 0.341844
vt 0.014612 0.296822
vt 0.010000 0.250000
vt 0.014611 0.203179
vt 0.028269 0.158156
vt 0.050447 0.116663
vt 0.080294 0.080294
vt 0.116663 0.050447
vt 0.158156 0.028269
vt 0.203178 0.014612
vt 0.250000 0.010000
vt 0.296822 0.014612
vt 0.341844 0.028269
vt 0.383337 0.050447
vt 0.419706 0.080294
vt 0.449553 0.116663
vt 0.471731 0.158156
vt 0.485388 0.203178
vt 0.490000 0.250000
vt 0.485388 0.296822
vt 0.471731 0.341844
vt 0.449553 0.383337
vt 0.419706 0.419706
vt 0.383337 0.449553
vt 0.341844 0.471731
vt 1.000000 0.500000
vt 1.000000 1.000000
vt 0.968750 1.000000
vt 0.968750 0.500000
vt 0.937500 1.000000
vt 0.937500 0.500000
vt 0.906250 1.000000
vt 0.906250 0.500000
vt 0.875000 1.000000
vt 0.875000 0.500000
vt 0.843750 1.000000
vt 0.843750 0.500000
vt 0.812500 1.000000
vt 0.812500 0.500000
vt 0.781250 1.000000
vt 0.781250 0.500000
vt 0.750000 1.000000
vt 0.750000 0.500000
vt 0.718750 1.000000
vt 0.718750 0.500000
vt 0.687500 1.000000
vt 0.687500 0.500000
vt 0.656250 1.000000
vt 0.656250 0.500000
vt 0.625000 1.000000
vt 0.625000 0.500000
vt 0.593750 1.000000
vt 0.593750 0.500000
vt 0.562500 1.000000
vt 0.562500 0.500000
vt 0.531250 1.000000
vt 0.531250 0.500000
vt 0.500000 1.000000
vt 0.500000 0.500000
vt 0.468750 1.000000
vt 0.468750 0.500000
vt 0.437500 1.000000
vt 0.437500 0.500000
vt 0.406250 1.000000
vt 0.406250 0.500000
vt 0.375000 1.000000
vt 0.375000 0.500000
vt 0.343750 1.000000
vt 0.343750 0.500000
vt 0.312500 1.000000
vt 0.312500 0.500000
vt 0.281250 1.000000
vt 0.281250 0.500000
vt 0.250000 1.000000
vt 0.250000 0.500000
vt 0.218750 1.000000
vt 0.218750 0.500000
vt 0.187500 1.000000
vt 0.187500 0.500000
vt 0.156250 1.000000
vt 0.156250 0.500000
vt 0.125000 1.000000
vt 0.125000 0.500000
vt 0.093750 1.000000
vt 0.093750 0.500000
vt 0.062500 1.000000
vt 0.062500 0.500000
vt 0.031250 1.000000
vt 0.031250 0.500000
vt 0.000000 1.000000
vt 0.000000 0.500000
vt 0.750000 0.490000
vt 0.796822 0.485388
vt 0.841844 0.471731
vt 0.883337 0.449553
vt 0.919706 0.419706
vt 0.949553 0.383337
vt 0.971731 0.341844
vt 0.985388 0.296822
vt 0.990000 0.250000
vt 0.985388 0.203178
vt 0.971731 0.158156
vt 0.949553 0.116663
vt 0.919706 0.080294
vt 0.883337 0.050447
vt 0.841844 0.028269
vt 0.796822 0.014612
vt 0.750000 0.010000
vt 0.703178 0.014612
vt 0.658156 0.028269
vt 0.616663 0.050447
vt 0.580294 0.080294
vt 0.550447 0.116663
vt 0.528269 0.158156
vt 0.514611 0.203179
vt 0.510000 0.250000
vt 0.514612 0.296822
vt 0.528269 0.341844
vt 0.550447 0.383337
vt 0.580295 0.419706
vt 0.616663 0.449553
vt 0.658156 0.471731
vt 0.703179 0.485389
vn -0.4025 0.9154 0.0000
vn 0.0000 0.9154 -0.4025
vn 0.4025 0.9154 0.0000
vn 0.0000 0.9154 0.4025
vn 0.0000 -1.0000 0.0000
vn 0.6419 0.7668 0.0000
vn -0.6419 0.7668 0.0000
vn 0.0000 0.7668 0.6419
vn 0.0000 0.7668 -0.6419
vn 0.0000 0.7051 0.7092
vn 0.0000 0.7051 -0.7092
vn 0.7092 0.7051 0.0000
vn -0.7092 0.7051 0.0000
vn 0.0000 0.6366 0.7712
vn 0.0000 0.6366 -0.7712
vn 0.7712 0.6366 0.0000
vn -0.7712 0.6366 0.0000
vn 0.6824 0.7310 0.0000
vn 0.0000 1.0000 0.0000
vn -0.6824 0.7310 0.0000
vn 0.0000 0.7310 0.6824
vn 0.0000 0.7310 -0.6824
vn 0.0000 0.0000 1.0000
usemtl Material
s off
f 1/1/1 2/2/1 4/3/1 3/4/1
f 3/4/2 4/3/2 8/5/2 7/6/2
f 7/6/3 8/5/3 6/7/3 5/8/3
f 5/8/4 6/7/4 2/9/4 1/10/4
f 3/11/5 7/6/5 5/8/5 1/12/5
f 8/5/5 4/3/5 10/13/5 11/14/5
f 12/15/6 11/14/6 15/16/6 16/17/6
f 6/7/5 8/5/5 11/14/5 12/15/5
f 4/3/5 2/2/5 9/18/5 10/13/5
f 2/9/5 6/7/5 12/15/5 9/19/5
f 14/20/5 13/21/5 17/22/5 18/23/5
f 10/13/7 9/18/7 13/21/7 14/20/7
f 9/19/8 12/15/8 16/17/8 13/24/8
f 11/14/9 10/13/9 14/20/9 15/16/9
f 17/25/10 20/26/10 24/27/10 21/28/10
f 13/24/5 16/17/5 20/26/5 17/25/5
f 15/16/5 14/20/5 18/23/5 19/29/5
f 16/17/5 15/16/5 19/29/5 20/26/5
f 24/27/5 23/30/5 27/31/5 28/32/5
f 19/29/11 18/23/11 22/33/11 23/30/11
f 20/26/12 19/29/12 23/30/12 24/27/12
f 18/23/13 17/22/13 21/34/13 22/33/13
f 25/35/14 28/32/14 32/36/14 29/37/14
f 22/33/5 21/34/5 25/38/5 26/39/5
f 21/28/5 24/27/5 28/32/5 25/35/5
f 23/30/5 22/33/5 26/39/5 27/31/5
f 31/40/5 30/41/5 34/42/5 35/43/5
f 27/31/15 26/39/15 30/41/15 31/40/15
f 28/32/16 27/31/16 31/40/16 32/36/16
f 26/39/17 25/38/17 29/44/17 30/41/17
f 36/45/18 35/43/18 39/46/18 40/47/18
f 32/36/5 31/40/5 35/43/5 36/45/5
f 30/41/5 29/44/5 33/48/5 34/42/5
f 29/37/5 32/36/5 36/45/5 33/49/5
f 39/46/19 38/50/19 37/51/19 40/47/19
f 34/42/20 33/48/20 37/52/20 38/53/20
f 33/49/21 36/45/21 40/47/21 37/54/21
f 35/43/22 34/42/22 38/53/22 39/46/22
f 44/55/23 42/56/23 104/57/23 102/58/23 100/59/23 98/60/23 96/61/23 94/62/23 92/63/23 90/64/23 88/65/23 86/66/23 84/67/23 82/68/23 80/69/23 78/70/23 76/71/23 74/72/23 72/73/23 70/74/23 68/75/23 66/76/23 64/77/23 62/78/23 60/79/23 58/80/23 56/81/23 54/82/23 52/83/23 50/84/23 48/85/23 46/86/23
usemtl Material.001
f 41/87/23 42/88/23 44/89/23 43/90/23
f 43/90/23 44/89/23 46/91/23 45/92/23
f 45/92/23 46/91/23 48/93/23 47/94/23
f 47/94/23 48/93/23 50/95/23 49/96/23
f 49/96/23 50/95/23 52/97/23 51/98/23
f 51/98/23 52/97/23 54/99/23 53/100/23
f 53/100/23 54/99/23 56/101/23 55/102/23
f 55/102/23 56/101/23 58/103/23 57/104/23
f 57/104/23 58/103/23 60/105/23 59/106/23
f 59/106/23 60/105/23 62/107/23 61/108/23
f 61/108/23 62/107/23 64/109/23 63/110/23
f 63/110/23 64/109/23 66/111/23 65/112/23
f 65/112/23 66/111/23 68/113/23 67/114/23
f 67/114/23 68/113/23 70/115/23 69/116/23
f 69/116/23 70/115/23 72/117/23 71/118/23
f 71/118/23 72/117/23 74/119/23 73/120/23
f 73/120/23 74/119/23 76/121/23 75/122/23
f 75/122/23 76/121/23 78/123/23 77/124/23
f 77/124/23 78/123/23 80/125/23 79/126/23
f 79/126/23 80/125/23 82/127/23 81/128/23
f 81/128/23 82/127/23 84/129/23 83/130/23
f 83/130/23 84/129/23 86/131/23 85/132/23
f 85/132/23 86/131/23 88/133/23 87/134/23
f 87/134/23 88/133/23 90/135/23 89/136/23
f 89/136/23 90/135/23 92/137/23 91/138/23
f 91/138/23 92/137/23 94/139/23 93/140/23
f 93/140/23 94/139/23 96/141/23 95/142/23
f 95/142/23 96/141/23 98/143/23 97/144/23
f 97/144/23 98/143/23 100/145/23 99/146/23
f 99/146/23 100/145/23 102/147/23 101/148/23
f 101/148/23 102/147/23 104/149/23 103/150/23
f 103/150/23 104/149/23 42/151/23 41/152/23
f 41/153/23 43/154/23 45/155/23 47/156/23 49/157/23 51/158/23 53/159/23 55/160/23 57/161/23 59/162/23 61/163/23 63/164/23 65/165/23 67/166/23 69/167/23 71/168/23 73/169/23 75/170/23 77/171/23 79/172/23 81/173/23 83/174/23 85/175/23 87/176/23 89/177/23 91/178/23 93/179/23 95/180/23 97/181/23 99/182/23 101/183/23 103/184/23
